<svg xmlns="http://www.w3.org/2000/svg" viewBox="0 0 600 180">
<defs>
  <filter id="sh" x="-10%" y="-15%" width="120%" height="145%">
    <feDropShadow dx="0" dy="1.5" stdDeviation="3" flood-color="#000" flood-opacity="0.45"/>
  </filter>
  <linearGradient id="fg" x1="0%" y1="0%" x2="0%" y2="100%">
    <stop offset="0%" stop-color="#e8e8e8"/>
    <stop offset="45%" stop-color="#b8b8b8"/>
    <stop offset="100%" stop-color="#888"/>
  </linearGradient>
  <radialGradient id="lg" cx="35%" cy="28%" r="65%">
    <stop offset="0%" stop-color="#2a3a4a" stop-opacity="0.72"/>
    <stop offset="100%" stop-color="#1a2530" stop-opacity="0.85"/>
  </radialGradient>
  <linearGradient id="sg" x1="10%" y1="0%" x2="80%" y2="100%">
    <stop offset="0%" stop-color="#fff" stop-opacity="0.18"/>
    <stop offset="50%" stop-color="#fff" stop-opacity="0.04"/>
    <stop offset="100%" stop-color="#fff" stop-opacity="0"/>
  </linearGradient>
</defs>
<g filter="url(#sh)">
  <path d="M152 18 C248 18 252 130 178 158 Q152 166 126 158 C52 130 56 18 152 18 Z" fill="url(#lg)"/>
  <path d="M152 18 C248 18 252 130 178 158 Q152 166 126 158 C52 130 56 18 152 18 Z" fill="none" stroke="url(#fg)" stroke-width="3.5"/>
  <path d="M448 18 C544 18 548 130 474 158 Q448 166 422 158 C348 130 352 18 448 18 Z" fill="url(#lg)"/>
  <path d="M448 18 C544 18 548 130 474 158 Q448 166 422 158 C348 130 352 18 448 18 Z" fill="none" stroke="url(#fg)" stroke-width="3.5"/>
  <path d="M248 44 Q300 32 352 44" fill="none" stroke="url(#fg)" stroke-width="3.5" stroke-linecap="round"/>
  <path d="M240 58 Q300 48 360 58" fill="none" stroke="url(#fg)" stroke-width="2.5" stroke-linecap="round"/>
  <path d="M56 44 Q8 50 0 62" fill="none" stroke="url(#fg)" stroke-width="3" stroke-linecap="round"/>
  <path d="M544 44 Q592 50 600 62" fill="none" stroke="url(#fg)" stroke-width="3" stroke-linecap="round"/>
  <ellipse cx="152" cy="42" rx="68" ry="16" fill="url(#sg)"/>
  <ellipse cx="448" cy="42" rx="68" ry="16" fill="url(#sg)"/>
</g>
</svg>
