<svg xmlns="http://www.w3.org/2000/svg" viewBox="0 0 600 220" width="600" height="220">
  <defs><filter id="sh" x="-15%" y="-15%" width="130%" height="140%">
    <feDropShadow dx="0" dy="3" stdDeviation="5" flood-color="#000" flood-opacity="0.5"/>
  </filter><linearGradient id="lensavs" x1="0%" y1="0%" x2="100%" y2="100%">
    <stop offset="0%" stop-color="rgb(200,220,240)" stop-opacity="0.29"/>
    <stop offset="50%" stop-color="rgb(200,220,240)" stop-opacity="0.11"/>
    <stop offset="100%" stop-color="rgb(200,220,240)" stop-opacity="0.18"/>
  </linearGradient><linearGradient id="shineavs" x1="0%" y1="0%" x2="0%" y2="100%">
    <stop offset="0%" stop-color="#fff" stop-opacity="0.28"/>
    <stop offset="60%" stop-color="#fff" stop-opacity="0.06"/>
    <stop offset="100%" stop-color="#fff" stop-opacity="0"/>
  </linearGradient><linearGradient id="frameavs" x1="0%" y1="0%" x2="0%" y2="100%">
    <stop offset="0%" stop-color="#d0d0d0"/>
    <stop offset="100%" stop-color="#909090"/>
  </linearGradient></defs>
  <g filter="url(#sh)">
      <path d="M148 52 C258 52 258 178 148 182 C38 178 38 52 148 52 Z" fill="url(#lensavs)"/>
      <path d="M452 52 C562 52 562 178 452 182 C342 178 342 52 452 52 Z" fill="url(#lensavs)"/>
      <path d="M148 52 C258 52 258 178 148 182 C38 178 38 52 148 52 Z" fill="none" stroke="url(#frameavs)" stroke-width="7"/>
      <path d="M452 52 C562 52 562 178 452 182 C342 178 342 52 452 52 Z" fill="none" stroke="url(#frameavs)" stroke-width="7"/>
      <path d="M258 80 Q300 62 342 80" fill="none" stroke="url(#frameavs)" stroke-width="6" stroke-linecap="round"/>
      <path d="M38 80 Q4 82 0 90" fill="none" stroke="url(#frameavs)" stroke-width="6" stroke-linecap="round"/>
      <path d="M562 80 Q596 82 600 90" fill="none" stroke="url(#frameavs)" stroke-width="6" stroke-linecap="round"/>
      <ellipse cx="148" cy="88" rx="72" ry="22" fill="url(#shineavs)"/>
      <ellipse cx="452" cy="88" rx="72" ry="22" fill="url(#shineavs)"/>
    </g>
</svg>